<svg xmlns="http://www.w3.org/2000/svg" viewBox="0 0 900 270" width="900" height="270" role="img" aria-label="GMT Electrical Services Ltd logo"><rect width="900" height="270" fill="#fff"/><g fill="none" stroke="#123d1d" stroke-width="22" stroke-linecap="round"><path d="M205 43a132 132 0 1 0 0 184"/><path d="M222 43a132 132 0 0 1 125 94"/><path d="M347 137h-37"/></g><g fill="#123d1d"><path d="M137 86h48v110h-48z"/><path d="M137 172h92v41h-92z"/><path d="M225 86h39v127h-39z"/><path d="M264 86h39v127h-39z"/><path d="M177 86l48 75 47-75h-47l-24 38-24-38z"/><text x="405" y="87" font-size="66" font-family="Arial, Helvetica, sans-serif" font-weight="700" letter-spacing="4">GMT</text><text x="405" y="158" font-size="66" font-family="Arial, Helvetica, sans-serif" font-weight="700" letter-spacing="4">ELECTRICAL</text><text x="405" y="229" font-size="66" font-family="Arial, Helvetica, sans-serif" font-weight="700" letter-spacing="4">SERVICES LTD</text></g></svg>